<svg width="22" height="22" viewBox="0 0 22 22" fill="none" xmlns="http://www.w3.org/2000/svg">
<path d="M10.0694 22C11.7296 22 13.1184 20.8165 13.4373 19.25H6.7016C7.02068 20.8165 8.40944 22 10.0694 22Z" fill="#979797"/>
<path d="M18.7125 16.9606L18.7126 16.9604C18.7975 16.5512 18.6541 16.1452 18.3338 15.8757C17.0097 14.7657 16.2002 13.1815 16.0285 11.485C12.4274 11.2487 9.56946 8.24399 9.56946 4.58337C9.56946 3.79464 9.7058 3.03884 9.95122 2.33453C6.73818 2.39752 4.15285 5.02173 4.15285 8.24998V10.8056C4.15285 12.7669 3.29327 14.6184 1.78765 15.8918C1.46903 16.1645 1.32645 16.5982 1.4422 17.0266L18.7125 16.9606ZM18.7125 16.9606C18.6103 17.4544 18.1131 17.8334 17.5266 17.8334H2.60784C2.04868 17.8334 1.56768 17.4895 1.44225 17.0268L18.7125 16.9606Z" fill="#CACACA" stroke="#CACACA"/>
<path d="M21 4.50008C21 6.98537 18.9854 9 16.4999 9C14.0146 9 12 6.98537 12 4.50008C12 2.0148 14.0146 0 16.4999 0C18.9854 0 21 2.0148 21 4.50008Z" fill="#7F7FD5"/>
</svg>
