<svg display="none" xmlns="http://www.w3.org/2000/svg">
        <symbol id="home" viewBox="0 0 26 26"> 
            <g>
                <path d="M25.1102 11.1062C25.1096 11.1057 25.109 11.1051 25.1085 11.1045L14.9094 0.906876C14.4747 0.472 13.8967 0.232437 13.2819 0.232437C12.6671 0.232437 12.0891 0.471809 11.6542 0.906685L1.46047 11.0992C1.45703 11.1026 1.4536 11.1062 1.45017 11.1097C0.557437 12.0075 0.558963 13.4641 1.45455 14.3596C1.86372 14.7689 2.40413 15.006 2.98192 15.0308C3.00539 15.0331 3.02904 15.0342 3.05288 15.0342H3.45938V22.5391C3.45938 24.0241 4.66781 25.2324 6.15341 25.2324H10.1436C10.548 25.2324 10.8761 24.9046 10.8761 24.5V18.6162C10.8761 17.9385 11.4274 17.3873 12.1051 17.3873H14.4587C15.1364 17.3873 15.6877 17.9385 15.6877 18.6162V24.5C15.6877 24.9046 16.0156 25.2324 16.4202 25.2324H20.4104C21.896 25.2324 23.1044 24.0241 23.1044 22.5391V15.0342H23.4813C24.0959 15.0342 24.6739 14.7949 25.109 14.36C26.0056 13.463 26.006 12.0038 25.1102 11.1062Z" />
            </g>
        </symbol>

        <symbol id="news" viewBox="0 0 26 26">
            <g>
                <path d="M5.38475 11.8392H7.05787V13.5123H5.38475V11.8392Z"/>
                <path d="M0.781738 22.482C0.781738 23.9673 1.99004 25.1756 3.4753 25.1756H23.088C24.5734 25.1756 25.7817 23.9673 25.7817 22.482V7.91676H0.781738V22.482ZM10.9283 10.3744H21.9113C22.3157 10.3744 22.6438 10.7023 22.6438 11.1068C22.6438 11.5112 22.3157 11.8392 21.9113 11.8392H10.9283C10.5237 11.8392 10.1958 11.5112 10.1958 11.1068C10.1958 10.7023 10.5237 10.3744 10.9283 10.3744ZM10.9283 13.5124H21.9113C22.3157 13.5124 22.6438 13.8402 22.6438 14.2448C22.6438 14.6493 22.3157 14.9772 21.9113 14.9772H10.9283C10.5237 14.9772 10.1958 14.6493 10.1958 14.2448C10.1958 13.8402 10.5237 13.5124 10.9283 13.5124ZM3.9199 11.1068C3.9199 10.7023 4.24777 10.3744 4.65232 10.3744H7.79029C8.19484 10.3744 8.52271 10.7023 8.52271 11.1068V14.2448C8.52271 14.6493 8.19484 14.9772 7.79029 14.9772H4.65232C4.24777 14.9772 3.9199 14.6493 3.9199 14.2448V11.1068ZM4.65232 16.6503H21.9113C22.3157 16.6503 22.6438 16.9782 22.6438 17.3827C22.6438 17.7873 22.3157 18.1152 21.9113 18.1152H4.65232C4.24777 18.1152 3.9199 17.7873 3.9199 17.3827C3.9199 16.9782 4.24758 16.6503 4.65232 16.6503ZM4.65232 19.7885H21.9113C22.3157 19.7885 22.6438 20.1164 22.6438 20.5209C22.6438 20.9253 22.3157 21.2533 21.9113 21.2533H4.65232C4.24777 21.2533 3.9199 20.9253 3.9199 20.5209C3.9199 20.1164 4.24758 19.7885 4.65232 19.7885Z" />
                <path d="M23.088 0.17572H3.4753C1.99004 0.17572 0.781738 1.38403 0.781738 2.86928V6.45166H25.7817V2.86928C25.7817 1.38403 24.5734 0.17572 23.088 0.17572ZM18.7732 4.77853H7.7901C7.38574 4.77853 7.05768 4.45066 7.05768 4.04611C7.05768 3.64156 7.38574 3.31369 7.7901 3.31369H18.7732C19.1777 3.31369 19.5056 3.64156 19.5056 4.04611C19.5056 4.45066 19.1777 4.77853 18.7732 4.77853Z" />
            </g>
        </symbol>

        <symbol id="friends" viewBox="0 0 26 23">
            <g>
                <path d="M22.3743 10.8873C21.1809 11.871 19.6527 12.4626 17.9891 12.4626C17.4133 12.4626 16.8537 12.3917 16.3186 12.2583C17.2754 13.7152 17.8329 15.4566 17.8329 17.326V20.0716C17.8329 21.0985 17.4579 22.039 16.8388 22.7654H23.0884C24.5737 22.7654 25.782 21.5571 25.782 20.0716V17.326C25.782 14.6538 24.4298 12.2917 22.3743 10.8873Z" />
                <path d="M8.57506 10.9978C11.5744 10.9978 14.0144 8.55769 14.0144 5.55839C14.0144 2.55889 11.5744 0.11882 8.57506 0.11882C5.57575 0.11882 3.13568 2.55889 3.13568 5.55839C3.13568 8.55769 5.57575 10.9978 8.57506 10.9978Z" />
                <path d="M17.9888 10.9978C20.9882 10.9978 23.4284 8.55769 23.4284 5.55839C23.4284 2.55889 20.9882 0.11882 17.9888 0.11882C16.5379 0.11882 15.218 0.68988 14.2417 1.61895C15.0212 2.73704 15.4792 4.09507 15.4792 5.55839C15.4792 7.02151 15.0212 8.37955 14.2417 9.49763C15.218 10.4267 16.5379 10.9978 17.9888 10.9978Z" />
                <path d="M12.9602 10.8873C11.767 11.871 10.2388 12.4626 8.57503 12.4626C6.91125 12.4626 5.38308 11.8712 4.18965 10.8873C2.1341 12.2917 0.781982 14.6538 0.781982 17.326V20.0716C0.781982 21.5571 1.99029 22.7654 3.47573 22.7654H13.6741C15.1596 22.7654 16.3679 21.5571 16.3679 20.0716V17.326C16.3679 14.6538 15.016 12.2917 12.9602 10.8873Z" />
            </g>
        </symbol>

        <symbol id="message" viewBox="0 0 26 18">
            <g>
                <path d="M17.3536 9.43042L25.7817 14.7585V3.87729L17.3536 9.43042Z" />
                <path d="M0.781738 3.87729V14.7585L9.20986 9.43042L0.781738 3.87729Z" />
                <path d="M24.2192 0.708542H2.34424C1.56455 0.708542 0.945801 1.28979 0.828613 2.03823L13.2817 10.2429L25.7349 2.03823C25.6177 1.28979 24.9989 0.708542 24.2192 0.708542Z" />
                <path d="M15.9224 10.3742L13.7114 11.8304C13.5802 11.9164 13.4317 11.9585 13.2817 11.9585C13.1317 11.9585 12.9833 11.9164 12.8521 11.8304L10.6411 10.3726L0.831738 16.5773C0.952051 17.3195 1.56768 17.896 2.34424 17.896H24.2192C24.9958 17.896 25.6114 17.3195 25.7317 16.5773L15.9224 10.3742Z" />
            </g>
        </symbol>

        <symbol id="music" viewBox="0 0 20 26">
            <g>
                <path d="M18.2861 11.0178L4.39962 1.51116C3.75831 1.07182 3.11215 0.839294 2.57506 0.839294C1.53671 0.839294 0.894394 1.67265 0.894394 3.06757V23.6143C0.894394 25.0076 1.5359 25.8393 2.57183 25.8393C3.10972 25.8393 3.74556 25.6066 4.38829 25.166L18.2813 15.6596C19.1747 15.0472 19.6695 14.2231 19.6695 13.3382C19.6697 12.4538 19.1806 11.63 18.2861 11.0178Z" />
            </g>
        </symbol>

        <symbol id="statistics" viewBox="0 0 34 34">
            <g>
                <path d="M29.0493 23.818H5.51416C5.10933 23.818 4.78174 24.1456 4.78174 24.5504C4.78174 24.9553 5.10933 25.2829 5.51416 25.2829H29.0493C29.4542 25.2829 29.7817 24.9553 29.7817 24.5504C29.7817 24.1456 29.4542 23.818 29.0493 23.818Z" />
                <path d="M11.4224 12.0504H6.979C6.57417 12.0504 6.24658 12.378 6.24658 12.7829V16.445H12.1548V12.7829C12.1548 12.378 11.8272 12.0504 11.4224 12.0504Z" />
                <path d="M12.1548 17.9098H6.24658V22.3532H12.1548V17.9098Z" />
                <path d="M19.479 6.19106H15.0845C14.6796 6.19106 14.3521 6.51864 14.3521 6.92348V16.445H20.2114V6.92348C20.2114 6.51864 19.8838 6.19106 19.479 6.19106Z" />
                <path d="M20.2114 17.9098H14.3521V22.3532H20.2114V17.9098Z" />
                <path d="M27.5845 0.282852H23.1411C22.7363 0.282852 22.4087 0.61044 22.4087 1.01527V7.6559H28.3169V1.01527C28.3169 0.61044 27.9893 0.282852 27.5845 0.282852Z" />
                <path d="M28.3169 9.12074H22.4087V22.3532H28.3169V9.12074Z" />
            </g>
        </symbol>

        <symbol id="settings" viewBox="0 0 26 26" >
            <g>
                <path d="M24.6454 9.81694H22.9266C22.8063 9.47694 22.6678 9.14323 22.5117 8.81724L23.7276 7.60133C24.1714 7.15762 24.1714 6.43807 23.7276 5.99429L20.5136 2.7802C20.3004 2.56709 20.0114 2.44732 19.71 2.44732C19.4086 2.44732 19.1196 2.56701 18.9065 2.7802L17.6905 3.9961C17.3645 3.84004 17.0308 3.70156 16.6908 3.58126V1.86239C16.6908 1.23482 16.182 0.726028 15.5545 0.726028H11.009C10.3814 0.726028 9.87265 1.23482 9.87265 1.86239V3.58126C9.53265 3.70156 9.19894 3.84004 8.87303 3.9961L7.65704 2.7802C7.21333 2.33641 6.49378 2.33641 6.05 2.7802L2.83583 5.99421C2.62265 6.20732 2.50295 6.49633 2.50295 6.79777C2.50295 7.09913 2.62265 7.38815 2.83583 7.60126L4.05174 8.81724C3.89568 9.14323 3.75727 9.47694 3.63697 9.81694H1.9181C1.29053 9.81694 0.781738 10.3257 0.781738 10.9533V15.4988C0.781738 16.1263 1.29053 16.6351 1.9181 16.6351H3.63697C3.75727 16.9751 3.89568 17.3088 4.05174 17.6348L2.83583 18.8508C2.62265 19.0639 2.50295 19.3529 2.50295 19.6543C2.50295 19.9557 2.62265 20.2447 2.83583 20.4578L6.05007 23.6719C6.49386 24.1157 7.21333 24.1157 7.65712 23.6719L8.8731 22.456C9.19901 22.6121 9.53272 22.7506 9.87265 22.8709V24.5897C9.87265 25.2172 10.3814 25.726 11.009 25.726H15.5545C16.182 25.726 16.6908 25.2172 16.6908 24.5897V22.8708C17.0308 22.7505 17.3645 22.612 17.6905 22.456L18.9065 23.6719C19.3503 24.1156 20.0698 24.1157 20.5136 23.6719L23.7276 20.4578C24.1714 20.014 24.1714 19.2945 23.7276 18.8507L22.5117 17.6348C22.6679 17.3088 22.8064 16.975 22.9267 16.6351H24.6454C25.273 16.6351 25.7817 16.1263 25.7817 15.4988V10.9533C25.7817 10.3257 25.273 9.81694 24.6454 9.81694ZM13.2817 17.7715C10.7754 17.7715 8.73628 15.7324 8.73628 13.226C8.73628 10.7197 10.7754 8.68057 13.2817 8.68057C15.7881 8.68057 17.8272 10.7197 17.8272 13.226C17.8272 15.7324 15.7881 17.7715 13.2817 17.7715Z" />
            </g>
        </symbol>

    </svg>